<?xml version="1.0" encoding="UTF-8" standalone="no"?>
<svg
   xmlns:dc="http://purl.org/dc/elements/1.1/"
   xmlns:cc="http://creativecommons.org/ns#"
   xmlns:rdf="http://www.w3.org/1999/02/22-rdf-syntax-ns#"
   xmlns:svg="http://www.w3.org/2000/svg"
   xmlns="http://www.w3.org/2000/svg"
   xmlns:sodipodi="http://sodipodi.sourceforge.net/DTD/sodipodi-0.dtd"
   xmlns:inkscape="http://www.inkscape.org/namespaces/inkscape"
   version="1.1"
   id="svg2"
   xml:space="preserve"
   width="620.62665"
   height="119.53333"
   viewBox="0 0 620.62665 119.53333"
   sodipodi:docname="DistriNet-logo.eps"><metadata
     id="metadata8"><rdf:RDF><cc:Work
         rdf:about=""><dc:format>image/svg+xml</dc:format><dc:type
           rdf:resource="http://purl.org/dc/dcmitype/StillImage" /></cc:Work></rdf:RDF></metadata><defs
     id="defs6" /><sodipodi:namedview
     pagecolor="#ffffff"
     bordercolor="#666666"
     borderopacity="1"
     objecttolerance="10"
     gridtolerance="10"
     guidetolerance="10"
     inkscape:pageopacity="0"
     inkscape:pageshadow="2"
     inkscape:window-width="640"
     inkscape:window-height="480"
     id="namedview4" /><g
     id="g10"
     inkscape:groupmode="layer"
     inkscape:label="ink_ext_XXXXXX"
     transform="matrix(1.3333333,0,0,-1.3333333,0,119.53333)"><g
       id="g12"
       transform="scale(0.1)"><path
         d="M 2730.4,546.695 H 2597.23 V 9.94141 H 2730.4 Z M 1958.11,258.438 v 174.511 h 112.49 v 115.563 h -112.44 l 3.45,118.769 -136.7,-1.32 V 548.512 h -46.44 V 432.949 h 46.44 V 258.438 c 0,-85.469 14.57,-149.942 43.74,-193.3208 C 1897.8,21.6992 1946.18,0 2013.76,0 c 17.23,0 32.97,1.66016 47.22,4.98047 14.24,3.32031 24.68,6.95313 31.31,10.91793 l 0.94,107.2656 c -20.06,-4.18 -22.63,-4.824 -40.7,-6.855 -33.58,-3.789 -57.99,11.738 -72.56,35.273 -14.58,23.516 -21.86,59.141 -21.86,106.856 M 910.469,9.94141 H 1043.66 V 546.695 H 910.469 Z M 779.77,126.25 c 6.96,28.477 10.441,63.613 10.441,105.352 v 240.543 c 0,41.746 -3.481,76.687 -10.441,104.863 -6.961,28.152 -18.559,51.015 -34.79,68.582 -16.242,17.558 -38.109,29.973 -65.601,37.277 -27.508,7.285 -62.117,10.938 -103.871,10.938 L 0,693.805 V 9.94141 h 575.508 c 41.754,0 76.363,3.65239 103.871,10.93749 27.492,7.2852 49.359,19.5313 65.601,36.7774 16.231,17.2265 27.829,40.0976 34.79,68.5937 M 656.02,230.605 c 0,-33.789 -5.809,-56.66 -17.391,-68.574 -11.609,-11.933 -32.649,-17.89 -63.121,-17.89 H 135.18 v 414.476 h 440.328 c 29.824,0 50.691,-6.133 62.621,-18.379 11.93,-12.273 17.891,-35.293 17.891,-69.082 V 230.605"
         style="fill:#393536;fill-opacity:1;fill-rule:nonzero;stroke:none"
         id="path14" /><path
         d="m 1719,75.1758 c 7.61,15.8984 11.43,36.4262 11.43,61.6212 v 59.629 c -3.42,129.57 -93.42,135.937 -93.42,135.937 l -325.99,0.293 c -8.61,7.715 -12.97,22.246 -12.97,43.692 0,22.519 4.47,37.422 13.42,44.726 8.95,7.285 22.69,10.918 41.25,10.918 h 340.93 l 0.45,116.52 -347.34,-0.215 c -6,0 -34.83,-0.559 -34.83,-0.559 v -0.593 c -17.54,-0.957 -34.1,-2.383 -48.67,-4.805 -23.85,-3.985 -43.41,-10.606 -58.64,-19.883 -15.25,-9.289 -26.68,-22.207 -34.29,-38.769 -7.63,-16.575 -11.43,-37.125 -11.43,-61.618 v -57.656 c 0,-45.723 5.25,-66.113 34.49,-98.672 45.35,-41.797 99.28,-35.82 99.28,-35.82 l 252.92,-0.313 c 0.39,-0.293 31.89,-0.078 32.27,-0.371 18.05,-9.55 15.92,-39.316 15.21,-52.773 -1.22,-23.184 -6.27,-31.387 -15.21,-38.672 -8.95,-7.305 -22.71,-10.938 -41.26,-10.938 h -371.74 c -2.06,-39.0034 1.16,-79.1402 -0.45,-116.0542 l 452.49,0.8203 c 0,0 39.24,5.3906 67.81,25.2734 15.23,9.6094 26.67,22.3828 34.29,38.2813"
         style="fill:#393536;fill-opacity:1;fill-rule:nonzero;stroke:none"
         id="path16" /><path
         d="m 4519.56,432.949 h 115.87 v 115.563 h -115.82 l 3.46,118.777 -136.7,-1.316 V 548.512 H 4343.3 V 432.949 h 43.07 V 258.438 c 0,-85.469 14.57,-149.942 43.73,-193.3208 C 4459.25,21.6992 4507.63,0 4575.22,0 c 17.23,0 32.96,1.67969 47.22,4.98047 14.24,3.32031 24.68,6.95313 31.31,10.93753 l 0.94,107.227 c -16.05,-6.739 -19.26,-8.008 -40.7,-6.836 -33.74,1.836 -57.99,11.757 -72.56,35.273 -14.57,23.516 -21.87,59.141 -21.87,106.856 v 174.511"
         style="fill:#393536;fill-opacity:1;fill-rule:nonzero;stroke:none"
         id="path18" /><path
         d="M 3502.49,689.84 V 194.844 L 3033.34,689.84 H 2889.22 V 5.97656 h 128.21 V 509.926 L 3499.51,5.97656 H 3631.7 V 689.84 h -129.21"
         style="fill:#393536;fill-opacity:1;fill-rule:nonzero;stroke:none"
         id="path20" /><path
         d="m 2496.12,424.57 0.89,106.176 c -9.63,3.984 -34.2,12.598 -54.86,15.918 -20.69,3.313 -34.32,3.332 -59.09,0 -25.68,-3.465 -42.34,-14.277 -62.05,-30.703 v 32.551 H 2186.18 V 12.4023 h 134.83 V 386.641 c 9.46,10.722 12.72,12.011 22.25,20.703 25.7,17.969 39.65,23.828 88.62,25.683 31.11,1.172 40.95,-1.718 64.24,-8.457"
         style="fill:#393536;fill-opacity:1;fill-rule:nonzero;stroke:none"
         id="path22" /><path
         d="m 3755.82,494.84 h 468.69"
         style="fill:none;stroke:#a6e2f9;stroke-width:90.6;stroke-linecap:butt;stroke-linejoin:miter;stroke-miterlimit:4;stroke-dasharray:none;stroke-opacity:1"
         id="path24" /><path
         d="m 3755.82,65.5664 h 468.69"
         style="fill:none;stroke:#006694;stroke-width:90.6;stroke-linecap:butt;stroke-linejoin:miter;stroke-miterlimit:4;stroke-dasharray:none;stroke-opacity:1"
         id="path26" /><path
         d="m 3755.82,280.195 h 468.69"
         style="fill:none;stroke:#549cc2;stroke-width:90.6;stroke-linecap:butt;stroke-linejoin:miter;stroke-miterlimit:4;stroke-dasharray:none;stroke-opacity:1"
         id="path28" /><path
         d="m 843.91,832.27 c 1.77,-8.606 3.695,-16.879 5.86,-23.684 10.019,-31.641 25.64,-63.77 53.621,-94.914 23.281,-25.922 72.668,-74.332 72.668,-74.332 0,0 54.431,51.328 71.671,70.812 23.56,26.629 38.59,55.75 38.59,55.75 h -78.68 c 0,0 -11.531,-14.062 -16.542,-20.589 -5.02,-6.528 -14.035,-14.571 -14.035,-14.571 0,0 -28.063,28.633 -45.106,58.262 -12.637,21.969 -18.887,36.949 -21.297,43.266 h -66.75"
         style="fill:#549cc2;fill-opacity:1;fill-rule:nonzero;stroke:none"
         id="path30" /><path
         d="m 1099.19,832.27 -0.06,64.199 H 834.508 c 0,0 3.359,-33.867 9.23,-64.199 h 255.452"
         style="fill:#a6e2f9;fill-opacity:1;fill-rule:nonzero;stroke:none"
         id="path32" /></g></g></svg>
