<?xml version="1.0" encoding="UTF-8" standalone="no"?>
<!DOCTYPE svg PUBLIC "-//W3C//DTD SVG 1.1//EN" "http://www.w3.org/Graphics/SVG/1.1/DTD/svg11.dtd">
<svg xmlns="http://www.w3.org/2000/svg" xmlns:xlink="http://www.w3.org/1999/xlink" version="1.1" width="99.884998pt" height="35.670003pt" viewBox="0 0 99.884998 35.670003">
<g enable-background="new">
<g>
<path d="M 3.57 3.57 L 99.886 3.57 L 99.886 35.675 L 3.57 35.675 Z " fill="#00407a"/>
<path d="M 0 0 L 0 35.672 L 3.57 35.672 L 3.57 3.57 L 99.879 3.57 L 99.879 0 Z M 0 0 " fill="#54bceb"/>
<path d="M 10.703 14.273 L 13.891 14.273 L 13.891 17.953 L 13.922 17.953 L 16.762 14.273 L 20.699 14.273 L 16.941 18.449 L 21.309 24.969 L 17.332 24.969 L 14.773 20.805 L 13.891 21.809 L 13.891 24.969 L 10.703 24.969 Z M 10.703 14.273 " fill="#ffffff"/>
<path d="M 30.879 20.828 C 30.879 23.789 29.324 25.215 26.16 25.215 C 22.996 25.215 21.426 23.789 21.426 20.828 L 21.426 14.266 L 24.621 14.266 L 24.621 20.094 C 24.621 21.188 24.621 22.547 26.176 22.547 C 27.684 22.547 27.684 21.18 27.684 20.094 L 27.684 14.266 L 30.879 14.266 Z M 30.879 20.828 " fill="#ffffff"/>
<path d="M 35.566 14.273 L 38.754 14.273 L 38.754 22.23 L 43.262 22.23 L 43.262 24.969 L 35.566 24.969 Z M 35.566 14.273 " fill="#ffffff"/>
<path d="M 44.234 14.273 L 52.727 14.273 L 52.727 17.012 L 47.391 17.012 L 47.391 18.344 L 52.238 18.344 L 52.238 20.895 L 47.391 20.895 L 47.391 22.23 L 52.883 22.23 L 52.883 24.969 L 44.234 24.969 Z M 44.234 14.273 " fill="#ffffff"/>
<path d="M 63.148 20.828 C 63.148 23.789 61.598 25.215 58.434 25.215 C 55.266 25.215 53.707 23.789 53.707 20.828 L 53.707 14.266 L 56.895 14.266 L 56.895 20.094 C 56.895 21.188 56.895 22.547 58.449 22.547 C 59.953 22.547 59.953 21.18 59.953 20.094 L 59.953 14.266 L 63.148 14.266 Z M 63.148 20.828 " fill="#ffffff"/>
<path d="M 70.262 24.969 L 66.691 24.969 L 63.602 14.273 L 66.816 14.273 L 68.52 20.762 L 68.543 20.762 L 70.215 14.273 L 73.492 14.273 Z M 70.262 24.969 " fill="#ffffff"/>
<path d="M 73.941 14.273 L 82.434 14.273 L 82.434 17.012 L 77.109 17.012 L 77.109 18.344 L 81.945 18.344 L 81.945 20.895 L 77.109 20.895 L 77.109 22.23 L 82.598 22.23 L 82.598 24.969 L 73.941 24.969 Z M 73.941 14.273 " fill="#ffffff"/>
<path d="M 83.422 14.273 L 86.684 14.273 L 89.699 19.996 L 89.73 19.996 L 89.73 14.273 L 92.746 14.273 L 92.746 24.969 L 89.641 24.969 L 86.469 19.125 L 86.438 19.125 L 86.438 24.969 L 83.422 24.969 Z M 83.422 14.273 " fill="#ffffff"/>
</g>
</g>
</svg>
